<svg xmlns="http://www.w3.org/2000/svg" viewBox="0 0 512 512" role="img" aria-label="Oficina do Celular">
  <defs>
    <linearGradient id="background" x1="0" x2="1" y2="1"><stop stop-color="#243d2b"/><stop offset=".58" stop-color="#102015"/><stop offset="1" stop-color="#08120c"/></linearGradient>
    <linearGradient id="device" x1="0" y1="0" x2="1" y2="1"><stop stop-color="#d2ffe1"/><stop offset=".5" stop-color="#83e6a7"/><stop offset="1" stop-color="#369d67"/></linearGradient>
    <linearGradient id="screen" x1="0" x2="1" y2="1"><stop stop-color="#1a482e"/><stop offset="1" stop-color="#092318"/></linearGradient>
  </defs>
  <rect width="512" height="512" rx="114" fill="url(#background)"/>
  <path d="M64 370c59 85 235 130 376 18" fill="none" stroke="#3d8154" stroke-opacity=".23" stroke-width="74"/>
  <rect x="92" y="90" width="328" height="328" rx="92" fill="#020a05" opacity=".37"/>
  <rect x="83" y="79" width="328" height="328" rx="92" fill="#183525" stroke="#60aa73" stroke-width="4"/>
  <g transform="rotate(-12 252 242)">
    <rect x="173" y="115" width="166" height="268" rx="31" fill="#031309" opacity=".6" transform="translate(10 12)"/>
    <rect x="173" y="115" width="166" height="268" rx="31" fill="url(#device)" stroke="#e8fff0" stroke-width="5"/>
    <rect x="184" y="130" width="144" height="238" rx="23" fill="url(#screen)" stroke="#5aca83" stroke-width="3"/>
    <rect x="226" y="140" width="60" height="8" rx="4" fill="#63bb85"/>
    <circle cx="256" cy="352" r="6" fill="#b4ffd0"/>
    <path d="m214 251 27 27 56-63" fill="none" stroke="#acffc4" stroke-width="14" stroke-linecap="round" stroke-linejoin="round"/>
  </g>
  <path d="M356 135v44m-22-22h44" stroke="#a5efb5" stroke-width="7" stroke-linecap="round" opacity=".8"/>
</svg>
